<mxfile host="65bd71144e">
    <diagram id="c_003iPTxan7o18V89Df" name="Page-1">
        <mxGraphModel dx="1318" dy="383" grid="1" gridSize="10" guides="1" tooltips="1" connect="1" arrows="1" fold="1" page="1" pageScale="1" pageWidth="827" pageHeight="1169" math="0" shadow="0">
            <root>
                <mxCell id="0"/>
                <mxCell id="1" parent="0"/>
                <mxCell id="6" style="edgeStyle=none;html=1;entryX=0.5;entryY=0;entryDx=0;entryDy=0;" edge="1" parent="1" source="2" target="5">
                    <mxGeometry relative="1" as="geometry"/>
                </mxCell>
                <mxCell id="2" value="arrayStr [size]&lt;br&gt;current = 0" style="shape=parallelogram;perimeter=parallelogramPerimeter;whiteSpace=wrap;html=1;fixedSize=1;" vertex="1" parent="1">
                    <mxGeometry x="120" y="110" width="120" height="60" as="geometry"/>
                </mxCell>
                <mxCell id="4" style="edgeStyle=none;html=1;" edge="1" parent="1" source="3" target="2">
                    <mxGeometry relative="1" as="geometry"/>
                </mxCell>
                <mxCell id="3" value="Start" style="rounded=1;whiteSpace=wrap;html=1;" vertex="1" parent="1">
                    <mxGeometry x="120" y="40" width="120" height="40" as="geometry"/>
                </mxCell>
                <mxCell id="7" style="edgeStyle=none;html=1;" edge="1" parent="1" source="5">
                    <mxGeometry relative="1" as="geometry">
                        <mxPoint x="180" y="280" as="targetPoint"/>
                    </mxGeometry>
                </mxCell>
                <mxCell id="5" value="arrayDoesNotExceedThreeSymbols [ ]&lt;br&gt;index = 0" style="rounded=0;whiteSpace=wrap;html=1;" vertex="1" parent="1">
                    <mxGeometry x="70" y="200" width="220" height="40" as="geometry"/>
                </mxCell>
                <mxCell id="11" value="Yes" style="edgeStyle=none;html=1;labelBorderColor=none;snapToPoint=0;fixDash=0;metaEdit=0;backgroundOutline=0;comic=0;sketch=0;shadow=0;" edge="1" parent="1" source="8">
                    <mxGeometry relative="1" as="geometry">
                        <mxPoint x="179.9999999999999" y="359.9999999999999" as="targetPoint"/>
                    </mxGeometry>
                </mxCell>
                <mxCell id="24" value="No" style="edgeStyle=none;comic=0;sketch=0;html=1;shadow=0;labelBorderColor=none;startArrow=none;exitX=0;exitY=0.5;exitDx=0;exitDy=0;entryX=0.5;entryY=0;entryDx=0;entryDy=0;" edge="1" parent="1" source="8" target="26">
                    <mxGeometry relative="1" as="geometry">
                        <mxPoint x="180" y="500" as="targetPoint"/>
                        <Array as="points">
                            <mxPoint x="70" y="300"/>
                            <mxPoint x="70" y="450"/>
                            <mxPoint x="180" y="450"/>
                        </Array>
                    </mxGeometry>
                </mxCell>
                <mxCell id="8" value="index &amp;lt; size" style="rhombus;whiteSpace=wrap;html=1;labelBorderColor=none;snapToPoint=0;fixDash=0;metaEdit=0;backgroundOutline=0;comic=0;sketch=0;shadow=0;" vertex="1" parent="1">
                    <mxGeometry x="120" y="280" width="120" height="40" as="geometry"/>
                </mxCell>
                <mxCell id="23" style="edgeStyle=none;html=1;entryX=0;entryY=0.5;entryDx=0;entryDy=0;labelBorderColor=none;snapToPoint=0;fixDash=0;metaEdit=0;backgroundOutline=0;comic=0;sketch=0;shadow=0;" edge="1" parent="1" source="9" target="15">
                    <mxGeometry relative="1" as="geometry"/>
                </mxCell>
                <mxCell id="9" value="lengthStr =&lt;br&gt;arrayStr [index].Length" style="rounded=0;whiteSpace=wrap;html=1;labelBorderColor=none;snapToPoint=0;fixDash=0;metaEdit=0;backgroundOutline=0;comic=0;sketch=0;shadow=0;" vertex="1" parent="1">
                    <mxGeometry x="110" y="360" width="140" height="40" as="geometry"/>
                </mxCell>
                <mxCell id="17" value="Yes" style="edgeStyle=none;html=1;labelBorderColor=none;snapToPoint=0;fixDash=0;metaEdit=0;backgroundOutline=0;comic=0;sketch=0;shadow=0;" edge="1" parent="1" source="15">
                    <mxGeometry relative="1" as="geometry">
                        <mxPoint x="440" y="380" as="targetPoint"/>
                    </mxGeometry>
                </mxCell>
                <mxCell id="21" value="No" style="edgeStyle=none;html=1;entryX=0.5;entryY=1;entryDx=0;entryDy=0;labelBorderColor=none;snapToPoint=0;fixDash=0;metaEdit=0;backgroundOutline=0;comic=0;sketch=0;shadow=0;" edge="1" parent="1" source="15" target="20">
                    <mxGeometry relative="1" as="geometry"/>
                </mxCell>
                <mxCell id="15" value="lengthStr &amp;lt;= 3" style="rhombus;whiteSpace=wrap;html=1;labelBorderColor=none;snapToPoint=0;fixDash=0;metaEdit=0;backgroundOutline=0;comic=0;sketch=0;shadow=0;" vertex="1" parent="1">
                    <mxGeometry x="280" y="360" width="120" height="40" as="geometry"/>
                </mxCell>
                <mxCell id="19" style="edgeStyle=none;html=1;entryX=1;entryY=0.5;entryDx=0;entryDy=0;labelBorderColor=none;snapToPoint=0;fixDash=0;metaEdit=0;backgroundOutline=0;comic=0;sketch=0;shadow=0;" edge="1" parent="1" source="18" target="20">
                    <mxGeometry relative="1" as="geometry">
                        <mxPoint x="470" y="300" as="targetPoint"/>
                        <Array as="points">
                            <mxPoint x="570" y="300"/>
                        </Array>
                    </mxGeometry>
                </mxCell>
                <mxCell id="18" value="&lt;span&gt;arrayDoesNotExceedThreeSymbols [current] = arrayStr [index]&lt;br&gt;current++&lt;br&gt;&lt;/span&gt;" style="rounded=0;whiteSpace=wrap;html=1;labelBorderColor=none;snapToPoint=0;fixDash=0;metaEdit=0;backgroundOutline=0;comic=0;sketch=0;shadow=0;" vertex="1" parent="1">
                    <mxGeometry x="440" y="350" width="260" height="60" as="geometry"/>
                </mxCell>
                <mxCell id="22" style="edgeStyle=none;html=1;entryX=1;entryY=0.5;entryDx=0;entryDy=0;labelBorderColor=none;snapToPoint=0;fixDash=0;metaEdit=0;backgroundOutline=0;comic=0;sketch=0;shadow=0;" edge="1" parent="1" source="20" target="8">
                    <mxGeometry relative="1" as="geometry"/>
                </mxCell>
                <mxCell id="20" value="index++" style="rounded=0;whiteSpace=wrap;html=1;labelBorderColor=none;snapToPoint=0;fixDash=0;metaEdit=0;backgroundOutline=0;comic=0;sketch=0;shadow=0;" vertex="1" parent="1">
                    <mxGeometry x="280" y="280" width="120" height="40" as="geometry"/>
                </mxCell>
                <mxCell id="25" value="Finish" style="rounded=1;whiteSpace=wrap;html=1;" vertex="1" parent="1">
                    <mxGeometry x="120" y="560" width="120" height="40" as="geometry"/>
                </mxCell>
                <mxCell id="28" style="edgeStyle=none;comic=0;sketch=0;html=1;shadow=0;labelBorderColor=none;" edge="1" parent="1" source="26">
                    <mxGeometry relative="1" as="geometry">
                        <mxPoint x="180" y="560" as="targetPoint"/>
                    </mxGeometry>
                </mxCell>
                <mxCell id="26" value="print arrayDoesNotExceedThreeSymbols[ ]" style="shape=document;whiteSpace=wrap;html=1;boundedLbl=1;shadow=0;labelBorderColor=none;" vertex="1" parent="1">
                    <mxGeometry x="60" y="480" width="240" height="40" as="geometry"/>
                </mxCell>
            </root>
        </mxGraphModel>
    </diagram>
</mxfile>